<svg width="49" height="49" viewBox="0 0 49 49" fill="none" xmlns="http://www.w3.org/2000/svg">
<g clip-path="url(#clip0_165_136)">
<path d="M32.0661 20.0182C31.958 19.9206 31.7972 19.9102 31.6764 19.9931L23.4822 25.6036C23.3902 25.6665 23.3373 25.773 23.3429 25.8844C23.3485 25.9956 23.4116 26.0954 23.5094 26.1475L25.9133 27.4284L23.007 32.8827C22.938 33.0121 22.9655 33.1715 23.0736 33.2689C23.1816 33.3663 23.3424 33.3767 23.4632 33.2939L31.6576 27.6837C31.7496 27.6207 31.8025 27.5142 31.7969 27.4029C31.7913 27.2917 31.7282 27.1918 31.6304 27.1397L29.2264 25.8587L32.1327 20.4044C32.2016 20.275 32.1742 20.1156 32.0661 20.0183L32.0661 20.0182ZM30.8683 27.4563L24.172 32.0409L26.6212 27.4444C26.6609 27.3698 26.6696 27.2826 26.6454 27.202C26.6213 27.1214 26.566 27.0538 26.4921 27.0144L24.2713 25.8311L30.9674 21.2468L28.5182 25.8433C28.4785 25.9179 28.4697 26.005 28.4939 26.0857C28.5181 26.1663 28.5733 26.2338 28.6474 26.2733L30.8683 27.4563Z" fill="#7E7E7E"/>
<path d="M27.8637 20.3097L27.8779 15.6199C27.881 14.5975 28.6457 13.7738 29.5825 13.7766L38.1863 13.8027C39.1261 13.8056 39.8828 14.637 39.8797 15.6563L39.8411 28.383C39.838 29.4054 39.0734 30.2291 38.1365 30.2262L32.9897 30.2106" stroke="#7E7E7E" stroke-miterlimit="10"/>
<path d="M28.3079 33.4156L28.2634 38.1053C28.2537 39.1276 27.4838 39.9464 26.5469 39.9375L17.9435 39.8558C17.0038 39.8469 16.2524 39.0106 16.2621 37.9914L16.3829 25.2652C16.3926 24.2429 17.1625 23.4241 18.0993 23.433L23.2459 23.4819" stroke="#7E7E7E" stroke-miterlimit="10"/>
</g>
<defs>
<clipPath id="clip0_165_136">
<rect width="35" height="35" fill="white" transform="translate(18.7903 0.418945) rotate(31.6616)"/>
</clipPath>
</defs>
</svg>
